<svg height="512" viewBox="0 0 52 60" width="512" xmlns="http://www.w3.org/2000/svg"><g id="Page-1" fill="none" fill-rule="evenodd"><g id="001---Four-Leaf-Clover" fill-rule="nonzero"><path id="Shape" d="m40 9.14c.0026488 1.2211147-.2352102 2.4307974-.7 3.56-3.58 1.44-6.78 5.03-11.19 9.91-.6307191-.4005028-1.3628693-.6121671-2.11-.61-1.3819811-.0031542-2.6661069.7127743-3.39 1.89-4.88-4.41-8.47-7.61-9.91-11.19-.4647898-1.1292026-.7026488-2.3388853-.7-3.56 0-4.41 2.86-8.14 7-8.14 4.85 0 7 4.68 7 4.68s2.15-4.68 7-4.68c4.14 0 7 3.73 7 8.14z" fill="#a4c400"/><path id="Shape" d="m33 1c-.5092412.00136509-1.0168476.05769129-1.514.168 3.323.773 5.514 4.112 5.514 7.972.0026488 1.2211147-.2352102 2.4307974-.7 3.56-3.432 1.38-6.526 4.75-10.659 9.323.119-.01.237-.023.359-.023.7471307-.0021671 1.4792809.2094972 2.11.61 4.41-4.88 7.61-8.47 11.19-9.91.4647898-1.1292026.7026488-2.3388853.7-3.56 0-4.41-2.86-8.14-7-8.14z" fill="#90ac00"/><path id="Shape" d="m23.89 29.39c-4.41 4.88-7.61 8.47-11.19 9.91-1.1292026.4647898-2.3388853.7026488-3.56.7-4.41 0-8.14-2.86-8.14-7 0-4.85 4.68-7 4.68-7s-4.68-2.15-4.68-7c0-4.14 3.73-7 8.14-7 1.2211147-.0026488 2.4307974.2352102 3.56.7 1.44 3.58 5.03 6.78 9.91 11.19-.4005028.6307191-.6121671 1.3628693-.61 2.11-.0031542 1.3819811.7127743 2.6661069 1.89 3.39z" fill="#60a917"/><path id="Shape" d="m40 42.86c0 4.41-2.86 8.14-7 8.14-4.85 0-7-4.68-7-4.68s-2.15 4.68-7 4.68c-4.14 0-7-3.73-7-8.14-.0026488-1.2211147.2352102-2.4307974.7-3.56 3.58-1.44 6.78-5.03 11.19-9.91.6307191.4005028 1.3628693.6121671 2.11.61 1.3819811.0031542 2.6661069-.7127743 3.39-1.89 4.88 4.41 8.47 7.61 9.91 11.19.4647898 1.1292026.7026488 2.3388853.7 3.56z" fill="#a4c400"/><path id="Shape" d="m39.3 39.3c-1.44-3.58-5.03-6.78-9.91-11.19-.3592024.5817459-.8628703 1.0606093-1.462 1.39 4.09 3.713 7.089 6.607 8.372 9.8.4647898 1.1292026.7026488 2.3388853.7 3.56 0 3.86-2.191 7.2-5.514 7.972.4971524.1103087 1.0047588.1666349 1.514.168 4.14 0 7-3.73 7-8.14.0026488-1.2211147-.2352102-2.4307974-.7-3.56z" fill="#90ac00"/><path id="Shape" d="m51 33c0 4.14-3.73 7-8.14 7-1.2211147.0026488-2.4307974-.2352102-3.56-.7-1.44-3.58-5.03-6.78-9.91-11.19.4005028-.6307191.6121671-1.3628693.61-2.11.0031542-1.3819811-.7127743-2.6661069-1.89-3.39 4.41-4.88 7.61-8.47 11.19-9.91 1.1292026-.4647898 2.3388853-.7026488 3.56-.7 4.41 0 8.14 2.86 8.14 7 0 4.85-4.68 7-4.68 7s4.68 2.15 4.68 7z" fill="#60a917"/><path id="Shape" d="m46.32 26s4.68-2.15 4.68-7c0-4.14-3.73-7-8.14-7-.4874323.0028199-.9739042.04361-1.455.122 3.702.578 6.595 3.233 6.595 6.878 0 4.85-4.68 7-4.68 7s4.68 2.15 4.68 7c0 3.645-2.893 6.3-6.595 6.878.4810958.07839.9675677.1191801 1.455.122 4.41 0 8.14-2.86 8.14-7 0-4.85-4.68-7-4.68-7z" fill="#549414"/><path id="Shape" d="m30 26c.0021671.7471307-.2094972 1.4792809-.61 2.11-.7238931 1.1772257-2.0080189 1.8931542-3.39 1.89-.7471307.0021671-1.4792809-.2094972-2.11-.61-1.1772257-.7238931-1.8931542-2.0080189-1.89-3.39-.0021671-.7471307.2094972-1.4792809.61-2.11.7238931-1.1772257 2.0080189-1.8931542 3.39-1.89.7471307-.0021671 1.4792809.2094972 2.11.61 1.1772257.7238931 1.8931542 2.0080189 1.89 3.39z" fill="#008a00"/><g fill="#000"><path id="Shape" d="m21.4 18.732c.4042724.376382 1.0371179.3537724 1.4135-.0505.376382-.4042725.3537724-1.0371179-.0505-1.4135-2.359-2.2-4.65-4.5-5.435-6.453-.2218507-.5302949-.333449-1.10019506-.328-1.675-.0242454-.89875325.2481112-1.78048549.775-2.509.2344716-.27614322.3012645-.65750075.1746014-.99689499-.1266632-.33939425-.4269737-.58374745-.7850324-.63875619s-.717869.08792978-.940569.37365118c-.820117 1.08376694-1.2512957 2.41217787-1.224 3.771-.0043846.83216021.1581531 1.6567501.478 2.425.878 2.185 3.004 4.445 5.922 7.167z"/><path id="Shape" d="m5.224 34.37c-.34790941.4283881-.28301577 1.0576326.145 1.406 1.08376694.820117 2.41217787 1.2512957 3.771 1.224.83216021.0043846 1.6567501-.1581531 2.425-.478 2.185-.878 4.445-3 7.167-5.926.376382-.4042724.3537724-1.0371179-.0505-1.4135-.4042724-.376382-1.0371179-.3537724-1.4135.0505-2.2 2.359-4.5 4.65-6.453 5.435-.5300077.2232217-1.09991859.3361831-1.675.332-.89875325.0242454-1.78048549-.2481112-2.509-.775-.20579043-.1673949-.46966032-.2461629-.73353764-.2189687s-.50613679.1581219-.67346236.3639687z"/><path id="Shape" d="m30.6 33.268c-.4042724-.376382-1.0371179-.3537724-1.4135.0505-.376382.4042725-.3537724 1.0371179.0505 1.4135 2.359 2.2 4.65 4.5 5.435 6.453.2218507.5302949.333449 1.1001951.328 1.675.0242454.8987533-.2481112 1.7804855-.775 2.509-.2344716.2761432-.3012645.6575008-.1746014.996895.1266632.3393942.4269737.5837474.7850324.6387562.3580587.0550087.717869-.0879298.940569-.3736512.820117-1.0837669 1.2512957-2.4121779 1.224-3.771.0043846-.8321602-.1581531-1.6567501-.478-2.425-.878-2.185-3.004-4.445-5.922-7.167z"/><path id="Shape" d="m33.268 21.4c-.376382.4042724-.3537724 1.0371179.0505 1.4135.4042724.376382 1.0371179.3537724 1.4135-.0505 2.2-2.359 4.5-4.65 6.453-5.435.5302949-.2218507 1.1001951-.333449 1.675-.328.8987533-.0242454 1.7804855.2481112 2.509.775.2761432.2344716.6575008.3012645.996895.1746014.3393942-.1266632.5837474-.4269737.6387562-.7850324.0550087-.3580587-.0879298-.717869-.3736512-.940569-1.0837669-.820117-2.4121779-1.2512957-3.771-1.224-.8321602-.0043846-1.6567501.1581531-2.425.478-2.185.878-4.445 3.004-7.167 5.922z"/><path id="Shape" d="m0 33c0 4.561 3.929 8 9.14 8 .189 0 .372-.017.558-.026-4.41082384 5.1786223-7.69822104 11.2167544-9.654 17.732-.1623717.5279842.1340158 1.0876283.66200001 1.25s1.08762826-.1340158 1.24999999-.662c1.86151257-6.1388659 4.94267379-11.8389632 9.059-16.759 0 .108-.015.215-.015.325 0 5.211 3.439 9.14 8 9.14 2.8072788-.0484229 5.4167302-1.45529 7-3.774 1.5832698 2.31871 4.1927212 3.7255771 7 3.774 4.561 0 8-3.929 8-9.14.0003539-.6945724-.0693319-1.3874104-.208-2.068.6805977.1386143 1.3734303.2082996 2.068.208 5.211 0 9.14-3.439 9.14-8-.0484229-2.8072788-1.45529-5.4167302-3.774-7 2.31871-1.5832698 3.7255771-4.1927212 3.774-7 0-4.561-3.929-8-9.14-8-.6945724-.0003539-1.3874104.0693319-2.068.208.1386143-.6805977.2082996-1.37343028.208-2.068 0-5.211-3.439-9.14-8-9.14-2.8072788.04842294-5.4167302 1.45529001-7 3.774-1.5832698-2.31870999-4.1927212-3.72557706-7-3.774-4.561 0-8 3.929-8 9.14-.0003539.69457243.0693319 1.3874104.208 2.068-.6805977-.1386143-1.37343028-.2082996-2.068-.208-5.211 0-9.14 3.439-9.14 8 .04842294 2.8072788 1.45529001 5.4167302 3.774 7-2.31870999 1.5832698-3.72557706 4.1927212-3.774 7zm33 17c-4.131 0-6.014-3.933-6.091-4.1-.1641804-.3537348-.5190218-.579756-.909-.579-.3890241-.0001572-.7428319.2253123-.907.578-.079.168-1.962 4.101-6.093 4.101-3.42 0-6-3.07-6-7.14-.0007476-.9679751.168489-1.9285623.5-2.838 3.466-1.557 6.523-4.867 10.616-9.395 1.8458893.7599252 3.9674475.3394752 5.384-1.067 4.4 3.982 7.593 6.939 8.872 10.117.4166796 1.0093585.6300892 2.0910192.628 3.183 0 4.07-2.58 7.14-6 7.14zm-4-24c0 1.6568542-1.3431458 3-3 3s-3-1.3431458-3-3 1.3431458-3 3-3 3 1.3431458 3 3zm21-7c0 4.131-3.933 6.014-4.1 6.091-.3541981.1634344-.5810298.517914-.5810298.908s.2268317.7445656.5810298.908c.168.079 4.1 1.962 4.1 6.093 0 3.42-3.07 6-7.14 6-.9679751.0007476-1.9285623-.168489-2.838-.5-1.557-3.466-4.867-6.523-9.395-10.616.7599252-1.8458893.3394752-3.9674475-1.067-5.384 3.982-4.4 6.939-7.593 10.117-8.872 1.0093585-.4166796 2.0910192-.6300892 3.183-.628 4.07 0 7.14 2.58 7.14 6zm-31-17c4.131 0 6.014 3.933 6.091 4.1.1641804.35373483.5190218.57975597.909.579.3890241.00015722.7428319-.22531234.907-.578.079-.168 1.962-4.101 6.093-4.101 3.42 0 6 3.07 6 7.14.0007476.9679751-.168489 1.9285623-.5 2.838-3.466 1.557-6.523 4.867-10.616 9.4-1.8449074-.7611967-3.9663269-.3427443-5.384 1.062-4.4-3.982-7.593-6.939-8.872-10.117-.4166796-1.0093585-.6300892-2.0910192-.628-3.183 0-4.07 2.58-7.14 6-7.14zm-12.9 23.093c-.167-.079-4.1-1.962-4.1-6.093 0-3.42 3.07-6 7.14-6 .9679751-.0007476 1.9285623.168489 2.838.5 1.557 3.466 4.867 6.523 9.4 10.616-.7611967 1.8449074-.3427443 3.9663269 1.062 5.384-3.982 4.4-6.939 7.593-10.117 8.872-1.0093585.4166796-2.0910192.6300892-3.183.628-4.07 0-7.14-2.58-7.14-6 0-4.131 3.933-6.014 4.1-6.091.35419811-.1634344.58102983-.517914.58102983-.908s-.22683172-.7445656-.58102983-.908z"/></g></g></g></svg>