<svg id="Layer_3" enable-background="new 0 0 64 64" height="512" viewBox="0 0 64 64" width="512" xmlns="http://www.w3.org/2000/svg"><g><path d="m4 46v16h56v-16" fill="#976947"/><path d="m4 54h56v8h-56z" fill="#674025"/><path d="m38 40v-10h12v10" fill="#976947"/><path d="m38 30h12v5h-12z" fill="#c18e59"/><path d="m6 22h4v18h-4z" fill="#f5cf88"/><path d="m54 22h4v18h-4z" fill="#f5cf88"/><path d="m17 19v-8h-5l-1 8z" fill="#d5cec2"/><path d="m47 19v-8h5l1 8z" fill="#d5cec2"/><g fill="#c66b60"><path d="m11 19 1-8h-4l-3 8z"/><path d="m41 11h6v8h-6z"/><path d="m29 11h6v8h-6z"/><path d="m17 11h6v8h-6z"/></g><path d="m23 11h6v8h-6z" fill="#d5cec2"/><path d="m35 11h6v8h-6z" fill="#d5cec2"/><path d="m53 19-1-8h4l3 8z" fill="#c66b60"/><path d="m40 5h15c.552 0 1 .448 1 1v5h-48v-5c0-.552.448-1 1-1h15" fill="#e7e4dd"/><path d="m8 25c-1.657 0-3-1.343-3-3v-3h6v3c0 1.657-1.343 3-3 3z" fill="#e47c6e"/><path d="m14 25c-1.657 0-3-1.343-3-3v-3h6v3c0 1.657-1.343 3-3 3z" fill="#e7e4dd"/><path d="m20 25c-1.657 0-3-1.343-3-3v-3h6v3c0 1.657-1.343 3-3 3z" fill="#e47c6e"/><path d="m26 25c-1.657 0-3-1.343-3-3v-3h6v3c0 1.657-1.343 3-3 3z" fill="#e7e4dd"/><path d="m32 25c-1.657 0-3-1.343-3-3v-3h6v3c0 1.657-1.343 3-3 3z" fill="#e47c6e"/><path d="m38 25c-1.657 0-3-1.343-3-3v-3h6v3c0 1.657-1.343 3-3 3z" fill="#e7e4dd"/><path d="m44 25c-1.657 0-3-1.343-3-3v-3h6v3c0 1.657-1.343 3-3 3z" fill="#e47c6e"/><path d="m50 25c-1.657 0-3-1.343-3-3v-3h6v3c0 1.657-1.343 3-3 3z" fill="#e7e4dd"/><path d="m56 25c-1.657 0-3-1.343-3-3v-3h6v3c0 1.657-1.343 3-3 3z" fill="#e47c6e"/><path d="m2 40h60v6h-60z" fill="#c18e59"/><path d="m24 2h16v6h-16z" fill="#c66b60"/><g><path d="m7 49h14v2h-14z" fill="#674025"/></g><g><path d="m23 49h2v2h-2z" fill="#674025"/></g><g><path d="m42.999 49h14v2h-14z" fill="#674025"/></g><g><path d="m39 49h2v2h-2z" fill="#674025"/></g><g><path d="m23 57h14v2h-14z" fill="#976947"/></g><g><path d="m39 57h2v2h-2z" fill="#976947"/></g><g><path d="m47 57h10v2h-10z" fill="#976947"/></g><g><path d="m7 57h10v2h-10z" fill="#976947"/></g><path d="m14 40v-5.586c0-.906.36-1.774 1-2.414.64-.64 1-1.509 1-2.414v-1.586h4v1.586c0 .906.36 1.774 1 2.414.64.64 1 1.509 1 2.414v5.586" fill="#a8b0bc"/><path d="m24 2v6h7.889c2.171-1.425 3.85-3.525 4.76-6z" fill="#e47c6e"/><path d="m20.646 31.568c-.413-.576-.646-1.265-.646-1.982v-1.586h-4v1.586c0 .906-.36 1.774-1 2.414s-1 1.509-1 2.414v5.082c3.286-1.456 5.77-4.373 6.646-7.928z" fill="#c1c8d1"/><g><path d="m62 38.999h-3v-14.382c.615-.703 1-1.612 1-2.617v-3c0-.124-.029-.239-.07-.349l.007-.003-2.937-7.831v-4.817c0-1.103-.897-2-2-2h-14v-2c0-.553-.447-1-1-1h-16c-.553 0-1 .447-1 1v2h-14c-1.103 0-2 .896-2 2v4.818l-2.937 7.831.007.003c-.041.108-.07.224-.07.348v3c0 1.005.385 1.914 1 2.617v14.382h-3c-.552 0-1 .448-1 1v6c0 .552.448 1 1 1h1v15c0 .552.448 1 1 1h56c.553 0 1-.448 1-1v-14.999h1c.552 0 1-.448 1-1v-6c0-.553-.448-1.001-1-1.001zm-7 0v-13.142c.322.084.653.142 1 .142s.679-.058 1-.142v13.142zm-6-4.999h-10v-3h10zm-10 1.999h10v3h-10zm11-6.999h-12c-.553 0-1 .447-1 1v9h-14v-4.585c0-1.179-.459-2.288-1.293-3.122-.457-.457-.707-1.063-.707-1.708v-1.585c0-.553-.447-1-1-1h-4c-.553 0-1 .447-1 1v1.586c0 .645-.251 1.251-.708 1.707-.834.833-1.292 1.941-1.292 3.121v4.585h-2v-14.382c.734.84 1.8 1.382 3 1.382s2.266-.542 3-1.382c.734.84 1.8 1.382 3 1.382s2.266-.542 3-1.382c.734.84 1.8 1.382 3 1.382s2.266-.542 3-1.382c.734.84 1.8 1.382 3 1.382s2.266-.542 3-1.382c.734.84 1.8 1.382 3 1.382s2.266-.542 3-1.382c.734.84 1.8 1.382 3 1.382s2.266-.542 3-1.382c.734.84 1.8 1.382 3 1.382s2.266-.542 3-1.382v14.382h-2v-9c0-.552-.448-.999-1-.999zm-29.708 3.707c.457.456.708 1.062.708 1.707v4.585h-6v-4.585c0-.645.251-1.251.707-1.707.834-.834 1.293-1.943 1.293-3.122v-.585h2v.586c0 1.179.459 2.287 1.292 3.121zm-14.292-10.707v-2h4v2c0 1.102-.897 1.999-2 1.999h-.001c-1.102 0-1.999-.897-1.999-1.999zm2.693-10.001h2.174l-.75 6h-3.674zm49.307 10.001c0 1.102-.897 1.999-2 1.999h-.001c-1.102 0-1.999-.897-1.999-1.999v-2h4zm-10-2h4v2c0 1.102-.897 1.999-2 1.999h-.001c-1.102 0-1.999-.897-1.999-1.999zm3.117-8.001.75 6h-3.867l-.001-6zm-5.117 0v6h-4l-.001-6zm-4 8.001h4v2c0 1.102-.897 1.999-2 1.999h-.001c-1.102 0-1.999-.897-1.999-1.999zm-2-8.001v6h-4v-6zm0 8.001v2c0 1.102-.897 1.999-2 1.999h-.001c-1.102 0-1.999-.897-1.999-1.999v-2zm-6-2h-4v-6h4zm0 2v2c0 1.102-.897 1.999-2 1.999h-.001c-1.102 0-1.999-.897-1.999-1.999v-2zm-6-2h-4v-6h4zm0 2v2c0 1.102-.897 1.999-2 1.999h-.001c-1.102 0-1.999-.897-1.999-1.999v-2zm-6-2h-4v-6h4zm0 2v2c0 1.102-.897 1.999-2 1.999h-.001c-1.102 0-1.999-.897-1.999-1.999v-2zm-6-2h-3.867l.75-6h3.117zm-4 2h4v2c0 1.102-.897 1.999-2 1.999h-.001c-1.102 0-1.999-.897-1.999-1.999zm43.307-8.001 2.25 6h-3.674l-.75-6zm-30.307-8.999h14v4h-14zm-16 3h14v2c0 .553.447 1 1 1h16c.553 0 1-.447 1-1v-2h14v4h-46zm-2 19.857c.322.084.653.142 1 .142s.679-.058 1-.142v13.142h-2zm-2 35.143v-6h54v6zm54-8.001h-54v-6h54zm2-7.999h-58v-4h58z"/><path d="m7 49h14v2h-14z"/><path d="m23 49h2v2h-2z"/><path d="m42.999 49h14v2h-14z"/><path d="m39 49h2v2h-2z"/><path d="m23 57h14v2h-14z"/><path d="m39 57h2v2h-2z"/><path d="m47 57h10v2h-10z"/><path d="m7 57h10v2h-10z"/></g></g></svg>